<?xml version="1.0" standalone="no"?>
<!DOCTYPE svg PUBLIC "-//W3C//DTD SVG 20010904//EN"
 "http://www.w3.org/TR/2001/REC-SVG-20010904/DTD/svg10.dtd">
<svg version="1.0" xmlns="http://www.w3.org/2000/svg"
 width="260.000000pt" height="260.000000pt" viewBox="0 0 260.000000 260.000000"
 preserveAspectRatio="xMidYMid meet">
<metadata>
Created by potrace 1.14, written by Peter Selinger 2001-2017
</metadata>
<g transform="translate(0.000000,260.000000) scale(0.100000,-0.100000)"
fill="#000000" stroke="none">
<path d="M1150 2593 c-290 -45 -516 -147 -713 -323 -291 -260 -441 -607 -432
-1000 4 -148 5 -156 31 -270 22 -92 15 -70 57 -180 119 -318 400 -599 731
-730 162 -64 289 -85 501 -84 629 3 1156 462 1260 1099 13 79 13 327 1 390 -4
17 -11 53 -16 80 -28 135 -98 305 -176 425 -205 316 -515 520 -894 587 -34 6
-319 11 -350 6z"/>
</g>
</svg>
